<svg fill="none" height="47" viewBox="0 0 524 47" width="524" xmlns="http://www.w3.org/2000/svg"><path d="m.591612 22.96c0-2.7307.469338-5.44 1.407998-8.128.98134-2.7307 2.38934-5.16267 4.224-7.296 1.87734-2.176 4.15999-3.92533 6.84799-5.248 2.688-1.322669 5.7387-1.984003 9.152-1.984003 4.0533 0 7.5307.917333 10.432 2.752003s5.056 4.224 6.464 7.168l-4.544 2.944c-.6827-1.4507-1.5147-2.6667-2.496-3.648-.9387-.98134-1.984-1.77067-3.136-2.368-1.1093-.59734-2.2613-1.024-3.456-1.28s-2.368-.384-3.52-.384c-2.5173 0-4.7573.53333-6.72 1.6-1.92 1.024-3.5413 2.38933-4.864 4.096-1.32265 1.664-2.32532 3.5627-3.00799 5.696-.64 2.0907-.96 4.2027-.96 6.336 0 2.3893.384 4.672 1.152 6.848.81067 2.1333 1.92 4.032 3.32799 5.696 1.408 1.664 3.072 2.9867 4.992 3.968s4.0107 1.472 6.272 1.472c1.1947 0 2.4107-.1493 3.648-.448 1.28-.2987 2.496-.768 3.648-1.408 1.152-.6827 2.2187-1.5147 3.2-2.496 1.024-1.024 1.856-2.24 2.496-3.648l4.8 2.624c-.7253 1.7067-1.7493 3.2213-3.072 4.544-1.28 1.28-2.752 2.368-4.416 3.264-1.6213.896-3.3493 1.5787-5.184 2.048s-3.6267.704-5.376.704c-3.1147 0-5.9733-.6827-8.576-2.048s-4.86399-3.136-6.78399-5.312c-1.87733-2.2187-3.34933-4.7147-4.416-7.488-1.024-2.816-1.535998-5.6747-1.535998-8.576zm44.008988 23.04v-45.440002h5.76v40.320002h25.344v5.12zm48.639-45.440002h4.864l18.5604 45.440002h-6.144l-5.376-13.312h-19.0724l-5.312 13.312h-6.144zm10.6244 27.648002-8.1924-20.992-8.448 20.992zm42.367-18.112c-.512-.59734-1.195-1.17334-2.048-1.728-.853-.55467-1.813-1.04533-2.88-1.472-1.067-.46934-2.24-.832-3.52-1.088-1.237-.29867-2.539-.448-3.904-.448-3.541 0-6.144.66133-7.808 1.984-1.621 1.32267-2.432 3.136-2.432 5.44 0 1.2373.235 2.2613.704 3.072s1.195 1.5147 2.176 2.112c1.024.5547 2.283 1.0453 3.776 1.472s3.264.8747 5.312 1.344c2.347.512 4.459 1.1093 6.336 1.792 1.92.64 3.541 1.4507 4.864 2.432 1.365.9813 2.389 2.176 3.072 3.584.725 1.408 1.088 3.136 1.088 5.184 0 2.176-.427 4.0747-1.28 5.696-.853 1.5787-2.027 2.9013-3.52 3.968-1.451 1.024-3.179 1.792-5.184 2.304-2.005.4693-4.181.704-6.528.704-3.499 0-6.827-.5333-9.984-1.6-3.115-1.1093-5.952-2.7093-8.512-4.8l2.752-4.864c.683.7253 1.557 1.4507 2.624 2.176 1.109.7253 2.347 1.3867 3.712 1.984 1.408.5547 2.901 1.024 4.48 1.408 1.621.3413 3.307.512 5.056.512 3.243 0 5.76-.576 7.552-1.728s2.688-2.88 2.688-5.184c0-1.28-.299-2.3467-.896-3.2-.555-.896-1.387-1.664-2.496-2.304s-2.496-1.1947-4.16-1.664c-1.621-.512-3.477-1.024-5.568-1.536-2.304-.5547-4.331-1.152-6.08-1.792s-3.221-1.408-4.416-2.304c-1.152-.896-2.027-1.984-2.624-3.264s-.896-2.816-.896-4.608c0-2.176.405-4.096 1.216-5.76s1.941-3.072 3.392-4.224 3.179-2.00534 5.184-2.56c2.005-.597336 4.181-.896002 6.528-.896002 3.072 0 5.845.469334 8.32 1.408002 2.475.93867 4.672 2.19733 6.592 3.776zm36.44 0c-.512-.59734-1.195-1.17334-2.048-1.728-.853-.55467-1.813-1.04533-2.88-1.472-1.067-.46934-2.24-.832-3.52-1.088-1.237-.29867-2.539-.448-3.904-.448-3.541 0-6.144.66133-7.808 1.984-1.621 1.32267-2.432 3.136-2.432 5.44 0 1.2373.235 2.2613.704 3.072s1.195 1.5147 2.176 2.112c1.024.5547 2.283 1.0453 3.776 1.472s3.264.8747 5.312 1.344c2.347.512 4.459 1.1093 6.336 1.792 1.92.64 3.541 1.4507 4.864 2.432 1.365.9813 2.389 2.176 3.072 3.584.725 1.408 1.088 3.136 1.088 5.184 0 2.176-.427 4.0747-1.28 5.696-.853 1.5787-2.027 2.9013-3.52 3.968-1.451 1.024-3.179 1.792-5.184 2.304-2.005.4693-4.181.704-6.528.704-3.499 0-6.827-.5333-9.984-1.6-3.115-1.1093-5.952-2.7093-8.512-4.8l2.752-4.864c.683.7253 1.557 1.4507 2.624 2.176 1.109.7253 2.347 1.3867 3.712 1.984 1.408.5547 2.901 1.024 4.48 1.408 1.621.3413 3.307.512 5.056.512 3.243 0 5.76-.576 7.552-1.728s2.688-2.88 2.688-5.184c0-1.28-.299-2.3467-.896-3.2-.555-.896-1.387-1.664-2.496-2.304s-2.496-1.1947-4.16-1.664c-1.621-.512-3.477-1.024-5.568-1.536-2.304-.5547-4.331-1.152-6.08-1.792s-3.221-1.408-4.416-2.304c-1.152-.896-2.027-1.984-2.624-3.264s-.896-2.816-.896-4.608c0-2.176.405-4.096 1.216-5.76s1.941-3.072 3.392-4.224 3.179-2.00534 5.184-2.56c2.005-.597336 4.181-.896002 6.528-.896002 3.072 0 5.845.469334 8.32 1.408002 2.475.93867 4.672 2.19733 6.592 3.776zm9.752 35.904v-45.440002h5.76v45.440002zm11.121-23.04c0-2.7307.469-5.44 1.408-8.128.981-2.7307 2.389-5.16267 4.224-7.296 1.877-2.176 4.16-3.92533 6.848-5.248 2.688-1.322669 5.739-1.984003 9.152-1.984003 4.053 0 7.531.917333 10.432 2.752003s5.056 4.224 6.464 7.168l-4.544 2.944c-.683-1.4507-1.515-2.6667-2.496-3.648-.939-.98134-1.984-1.77067-3.136-2.368-1.109-.59734-2.261-1.024-3.456-1.28s-2.368-.384-3.52-.384c-2.517 0-4.757.53333-6.72 1.6-1.92 1.024-3.541 2.38933-4.864 4.096-1.323 1.664-2.325 3.5627-3.008 5.696-.64 2.0907-.96 4.2027-.96 6.336 0 2.3893.384 4.672 1.152 6.848.811 2.1333 1.92 4.032 3.328 5.696s3.072 2.9867 4.992 3.968 4.011 1.472 6.272 1.472c1.195 0 2.411-.1493 3.648-.448 1.28-.2987 2.496-.768 3.648-1.408 1.152-.6827 2.219-1.5147 3.2-2.496 1.024-1.024 1.856-2.24 2.496-3.648l4.8 2.624c-.725 1.7067-1.749 3.2213-3.072 4.544-1.28 1.28-2.752 2.368-4.416 3.264-1.621.896-3.349 1.5787-5.184 2.048s-3.627.704-5.376.704c-3.115 0-5.973-.6827-8.576-2.048s-4.864-3.136-6.784-5.312c-1.877-2.2187-3.349-4.7147-4.416-7.488-1.024-2.816-1.536-5.6747-1.536-8.576zm55.257 23.04v-25.56h10.656c1.128 0 2.16.24 3.096.72.96.456 1.776 1.08 2.448 1.872.696.768 1.236 1.644 1.62 2.628.384.96.576 1.944.576 2.952 0 1.056-.18 2.076-.54 3.06s-.876 1.86-1.548 2.628c-.648.768-1.44 1.38-2.376 1.836-.912.456-1.932.684-3.06.684h-7.632v9.18zm3.24-12.06h7.452c.672 0 1.272-.132 1.8-.396.552-.288 1.02-.672 1.404-1.152.384-.504.684-1.08.9-1.728s.324-1.332.324-2.052c0-.744-.132-1.44-.396-2.088-.24-.648-.576-1.212-1.008-1.692-.408-.48-.9-.852-1.476-1.116-.552-.264-1.14-.396-1.764-.396h-7.236zm16.093-.9c0-1.536.264-3.06.792-4.572.552-1.536 1.344-2.904 2.376-4.104 1.056-1.224 2.34-2.208 3.852-2.952s3.228-1.116 5.148-1.116c2.28 0 4.236.516 5.868 1.548s2.844 2.376 3.636 4.032l-2.556 1.656c-.384-.816-.852-1.5-1.404-2.052-.528-.552-1.116-.996-1.764-1.332-.624-.336-1.272-.576-1.944-.72s-1.332-.216-1.98-.216c-1.416 0-2.676.3-3.78.9-1.08.576-1.992 1.344-2.736 2.304-.744.936-1.308 2.004-1.692 3.204-.36 1.176-.54 2.364-.54 3.564 0 1.344.216 2.628.648 3.852.456 1.2 1.08 2.268 1.872 3.204s1.728 1.68 2.808 2.232 2.256.828 3.528.828c.672 0 1.356-.084 2.052-.252.72-.168 1.404-.432 2.052-.792.648-.384 1.248-.852 1.8-1.404.576-.576 1.044-1.26 1.404-2.052l2.7 1.476c-.408.96-.984 1.812-1.728 2.556-.72.72-1.548 1.332-2.484 1.836-.912.504-1.884.888-2.916 1.152s-2.04.396-3.024.396c-1.752 0-3.36-.384-4.824-1.152s-2.736-1.764-3.816-2.988c-1.056-1.248-1.884-2.652-2.484-4.212-.576-1.584-.864-3.192-.864-4.824z" fill="#979797"/><path d="m350.961 39.856c-4.011 4.3093-8.619 6.464-13.824 6.464-3.029 0-5.845-.6613-8.448-1.984-2.56-1.3227-4.779-3.0507-6.656-5.184-1.877-2.176-3.371-4.6507-4.48-7.424-1.067-2.7733-1.6-5.632-1.6-8.576 0-3.072.533-5.9733 1.6-8.704 1.067-2.7733 2.539-5.20534 4.416-7.296 1.877-2.13333 4.117-3.81867 6.72-5.056 2.603-1.237336 5.419-1.856002 8.448-1.856002 4.395 0 8 .917332 10.816 2.752002 2.859 1.83467 5.035 4.224 6.528 7.168l-4.416 3.072c-1.365-2.6453-3.179-4.608-5.44-5.888s-4.8-1.92-7.616-1.92c-2.304 0-4.395.512-6.272 1.536-1.877.98133-3.477 2.304-4.8 3.968-1.323 1.6213-2.347 3.52-3.072 5.696-.725 2.1333-1.088 4.352-1.088 6.656 0 2.432.405 4.736 1.216 6.912.811 2.1333 1.92 4.032 3.328 5.696 1.408 1.6213 3.072 2.9013 4.992 3.84s4.011 1.408 6.272 1.408c4.949 0 9.408-2.3893 13.376-7.168v-6.272h-9.792v-4.352h14.656v22.656h-4.864zm24.887-39.296002h4.864l18.56 45.440002h-6.144l-5.376-13.312h-19.072l-5.312 13.312h-6.144zm10.624 27.648002-8.192-20.992-8.448 20.992zm55.601 17.792v-35.136l-15.104 26.944h-3.264l-15.168-26.944v35.136h-5.76v-45.440002h6.08l16.448 29.504002 16.512-29.504002h6.016v45.440002zm44.929-5.12v5.12h-30.848v-45.440002h30.272v5.120002h-24.512v14.72h21.312v4.8h-21.312v15.68zm32.03-30.784c-.512-.59734-1.194-1.17334-2.048-1.728-.853-.55467-1.813-1.04533-2.88-1.472-1.066-.46934-2.24-.832-3.52-1.088-1.237-.29867-2.538-.448-3.904-.448-3.541 0-6.144.66133-7.808 1.984-1.621 1.32267-2.432 3.136-2.432 5.44 0 1.2373.235 2.2613.704 3.072.47.8107 1.195 1.5147 2.176 2.112 1.024.5547 2.283 1.0453 3.776 1.472 1.494.4267 3.264.8747 5.312 1.344 2.347.512 4.459 1.1093 6.336 1.792 1.92.64 3.542 1.4507 4.864 2.432 1.366.9813 2.39 2.176 3.072 3.584.726 1.408 1.088 3.136 1.088 5.184 0 2.176-.426 4.0747-1.28 5.696-.853 1.5787-2.026 2.9013-3.52 3.968-1.45 1.024-3.178 1.792-5.184 2.304-2.005.4693-4.181.704-6.528.704-3.498 0-6.826-.5333-9.984-1.6-3.114-1.1093-5.952-2.7093-8.512-4.8l2.752-4.864c.683.7253 1.558 1.4507 2.624 2.176 1.11.7253 2.347 1.3867 3.712 1.984 1.408.5547 2.902 1.024 4.48 1.408 1.622.3413 3.307.512 5.056.512 3.243 0 5.76-.576 7.552-1.728s2.688-2.88 2.688-5.184c0-1.28-.298-2.3467-.896-3.2-.554-.896-1.386-1.664-2.496-2.304-1.109-.64-2.496-1.1947-4.16-1.664-1.621-.512-3.477-1.024-5.568-1.536-2.304-.5547-4.33-1.152-6.08-1.792-1.749-.64-3.221-1.408-4.416-2.304-1.152-.896-2.026-1.984-2.624-3.264-.597-1.28-.896-2.816-.896-4.608 0-2.176.406-4.096 1.216-5.76.811-1.664 1.942-3.072 3.392-4.224 1.451-1.152 3.179-2.00534 5.184-2.56 2.006-.597336 4.182-.896002 6.528-.896002 3.072 0 5.846.469334 8.32 1.408002 2.475.93867 4.672 2.19733 6.592 3.776z" fill="#ed293b"/></svg>